<mxfile host="app.diagrams.net" modified="2021-03-14T15:11:53.988Z" agent="5.0 (Macintosh; Intel Mac OS X 10_15_3) AppleWebKit/537.36 (KHTML, like Gecko) Chrome/88.0.4324.192 Safari/537.36" etag="Wdz0PVrY6yTcXbIyuiRU" version="14.4.4" type="github">
  <diagram id="p4hcM83d8j11S7aXxWR0" name="Page-1">
    <mxGraphModel dx="2646" dy="2789" grid="1" gridSize="10" guides="1" tooltips="1" connect="1" arrows="1" fold="1" page="1" pageScale="1" pageWidth="850" pageHeight="1100" math="0" shadow="0">
      <root>
        <mxCell id="0" />
        <mxCell id="1" parent="0" />
        <mxCell id="49kWa-taQujCRStD-I59-1" value="Product::Variant" style="swimlane;fontStyle=1;childLayout=stackLayout;horizontal=1;startSize=26;horizontalStack=0;resizeParent=1;resizeParentMax=0;resizeLast=0;collapsible=1;marginBottom=0;align=center;fontSize=14;strokeColor=#9673a6;fillColor=#FFE599;" parent="1" vertex="1">
          <mxGeometry x="730" y="-800" width="460" height="580" as="geometry" />
        </mxCell>
        <mxCell id="49kWa-taQujCRStD-I59-2" value="id (PK)" style="text;strokeColor=#000000;fillColor=none;spacingLeft=4;spacingRight=4;overflow=hidden;rotatable=0;points=[[0,0.5],[1,0.5]];portConstraint=eastwest;fontSize=12;" parent="49kWa-taQujCRStD-I59-1" vertex="1">
          <mxGeometry y="26" width="460" height="26" as="geometry" />
        </mxCell>
        <mxCell id="49kWa-taQujCRStD-I59-3" value="product_id (FK)" style="text;strokeColor=#000000;fillColor=none;spacingLeft=4;spacingRight=4;overflow=hidden;rotatable=0;points=[[0,0.5],[1,0.5]];portConstraint=eastwest;fontSize=12;" parent="49kWa-taQujCRStD-I59-1" vertex="1">
          <mxGeometry y="52" width="460" height="26" as="geometry" />
        </mxCell>
        <mxCell id="49kWa-taQujCRStD-I59-4" value="title (string) e.g &quot;A Promised Land&quot;, &quot;Gordon the Giant Sloth&quot;" style="text;strokeColor=#000000;fillColor=none;spacingLeft=4;spacingRight=4;overflow=hidden;rotatable=0;points=[[0,0.5],[1,0.5]];portConstraint=eastwest;fontSize=12;" parent="49kWa-taQujCRStD-I59-1" vertex="1">
          <mxGeometry y="78" width="460" height="26" as="geometry" />
        </mxCell>
        <mxCell id="xNZ4ATSNOMt5Z4T5nZos-5" value="subtitle (string) e.g &quot;by Barack Obama&quot;, &quot;This sleepy sloth is anything but a yawn.&quot;" style="text;strokeColor=#000000;fillColor=none;spacingLeft=4;spacingRight=4;overflow=hidden;rotatable=0;points=[[0,0.5],[1,0.5]];portConstraint=eastwest;fontSize=12;" parent="49kWa-taQujCRStD-I59-1" vertex="1">
          <mxGeometry y="104" width="460" height="26" as="geometry" />
        </mxCell>
        <mxCell id="49kWa-taQujCRStD-I59-5" value="description (rich text powered by Action Text)" style="text;strokeColor=#000000;fillColor=none;spacingLeft=4;spacingRight=4;overflow=hidden;rotatable=0;points=[[0,0.5],[1,0.5]];portConstraint=eastwest;fontSize=12;" parent="49kWa-taQujCRStD-I59-1" vertex="1">
          <mxGeometry y="130" width="460" height="26" as="geometry" />
        </mxCell>
        <mxCell id="xNZ4ATSNOMt5Z4T5nZos-7" value="details (rich text powered by Action Text)" style="text;strokeColor=#000000;fillColor=none;spacingLeft=4;spacingRight=4;overflow=hidden;rotatable=0;points=[[0,0.5],[1,0.5]];portConstraint=eastwest;fontSize=12;" parent="49kWa-taQujCRStD-I59-1" vertex="1">
          <mxGeometry y="156" width="460" height="26" as="geometry" />
        </mxCell>
        <mxCell id="49kWa-taQujCRStD-I59-7" value="sku (string) : stock keeping unit" style="text;strokeColor=#000000;fillColor=none;spacingLeft=4;spacingRight=4;overflow=hidden;rotatable=0;points=[[0,0.5],[1,0.5]];portConstraint=eastwest;fontSize=12;" parent="49kWa-taQujCRStD-I59-1" vertex="1">
          <mxGeometry y="182" width="460" height="26" as="geometry" />
        </mxCell>
        <mxCell id="49kWa-taQujCRStD-I59-10" value="variant_type (enum): A variant can either be physical or digital e.g A &#xa;book may have an format option type with values as &#xa;HardCover, PaperBack and Audio Book. The Audio Book variant has a&#xa;digital variant_type. " style="text;strokeColor=#000000;fillColor=none;spacingLeft=4;spacingRight=4;overflow=hidden;rotatable=0;points=[[0,0.5],[1,0.5]];portConstraint=eastwest;fontSize=12;fontStyle=0" parent="49kWa-taQujCRStD-I59-1" vertex="1">
          <mxGeometry y="208" width="460" height="64" as="geometry" />
        </mxCell>
        <mxCell id="49kWa-taQujCRStD-I59-8" value="master (boolean): A master variant serves a template that other &#xa;variants are based on." style="text;strokeColor=#000000;fillColor=none;spacingLeft=4;spacingRight=4;overflow=hidden;rotatable=0;points=[[0,0.5],[1,0.5]];portConstraint=eastwest;fontSize=12;" parent="49kWa-taQujCRStD-I59-1" vertex="1">
          <mxGeometry y="272" width="460" height="38" as="geometry" />
        </mxCell>
        <mxCell id="49kWa-taQujCRStD-I59-6" value="search_tags (text:array) : searchable keywords associated with the variant." style="text;strokeColor=#000000;fillColor=none;spacingLeft=4;spacingRight=4;overflow=hidden;rotatable=0;points=[[0,0.5],[1,0.5]];portConstraint=eastwest;fontSize=12;" parent="49kWa-taQujCRStD-I59-1" vertex="1">
          <mxGeometry y="310" width="460" height="26" as="geometry" />
        </mxCell>
        <mxCell id="49kWa-taQujCRStD-I59-9" value="care_tags (text:array)" style="text;strokeColor=#000000;fillColor=none;spacingLeft=4;spacingRight=4;overflow=hidden;rotatable=0;points=[[0,0.5],[1,0.5]];portConstraint=eastwest;fontSize=12;" parent="49kWa-taQujCRStD-I59-1" vertex="1">
          <mxGeometry y="336" width="460" height="26" as="geometry" />
        </mxCell>
        <mxCell id="49kWa-taQujCRStD-I59-11" value="visible_on_storefront (boolean)" style="text;strokeColor=#000000;fillColor=none;spacingLeft=4;spacingRight=4;overflow=hidden;rotatable=0;points=[[0,0.5],[1,0.5]];portConstraint=eastwest;fontSize=12;" parent="49kWa-taQujCRStD-I59-1" vertex="1">
          <mxGeometry y="362" width="460" height="26" as="geometry" />
        </mxCell>
        <mxCell id="93qC_zg4oYfhFcOvwt_j-1" value="track_inventory (boolean)" style="text;strokeColor=#000000;fillColor=none;spacingLeft=4;spacingRight=4;overflow=hidden;rotatable=0;points=[[0,0.5],[1,0.5]];portConstraint=eastwest;fontSize=12;" vertex="1" parent="49kWa-taQujCRStD-I59-1">
          <mxGeometry y="388" width="460" height="26" as="geometry" />
        </mxCell>
        <mxCell id="49kWa-taQujCRStD-I59-12" value="backorderable (boolean)" style="text;strokeColor=#000000;fillColor=none;spacingLeft=4;spacingRight=4;overflow=hidden;rotatable=0;points=[[0,0.5],[1,0.5]];portConstraint=eastwest;fontSize=12;" parent="49kWa-taQujCRStD-I59-1" vertex="1">
          <mxGeometry y="414" width="460" height="26" as="geometry" />
        </mxCell>
        <mxCell id="49kWa-taQujCRStD-I59-13" value="images (activestorage) " style="text;strokeColor=#000000;fillColor=none;spacingLeft=4;spacingRight=4;overflow=hidden;rotatable=0;points=[[0,0.5],[1,0.5]];portConstraint=eastwest;fontSize=12;" parent="49kWa-taQujCRStD-I59-1" vertex="1">
          <mxGeometry y="440" width="460" height="26" as="geometry" />
        </mxCell>
        <mxCell id="xNZ4ATSNOMt5Z4T5nZos-4" value="digital_downloads (activestorage) : Variants of digital variant_type should &#xa;have downloads. Physical products may also have digital attachments i.e&#xa;Michelle Obama Autobiography (with audio file)" style="text;strokeColor=#000000;fillColor=none;spacingLeft=4;spacingRight=4;overflow=hidden;rotatable=0;points=[[0,0.5],[1,0.5]];portConstraint=eastwest;fontSize=12;" parent="49kWa-taQujCRStD-I59-1" vertex="1">
          <mxGeometry y="466" width="460" height="62" as="geometry" />
        </mxCell>
        <mxCell id="xNZ4ATSNOMt5Z4T5nZos-3" value="eligible_for_gifting (boolean) : default to true" style="text;strokeColor=#000000;fillColor=none;spacingLeft=4;spacingRight=4;overflow=hidden;rotatable=0;points=[[0,0.5],[1,0.5]];portConstraint=eastwest;fontSize=12;" parent="49kWa-taQujCRStD-I59-1" vertex="1">
          <mxGeometry y="528" width="460" height="26" as="geometry" />
        </mxCell>
        <mxCell id="49kWa-taQujCRStD-I59-28" value="data (jsonb)" style="text;strokeColor=#000000;fillColor=none;spacingLeft=4;spacingRight=4;overflow=hidden;rotatable=0;points=[[0,0.5],[1,0.5]];portConstraint=eastwest;fontSize=12;" parent="49kWa-taQujCRStD-I59-1" vertex="1">
          <mxGeometry y="554" width="460" height="26" as="geometry" />
        </mxCell>
        <mxCell id="49kWa-taQujCRStD-I59-14" value="Product" style="swimlane;fontStyle=1;childLayout=stackLayout;horizontal=1;startSize=26;horizontalStack=0;resizeParent=1;resizeParentMax=0;resizeLast=0;collapsible=1;marginBottom=0;align=center;fontSize=14;strokeColor=#9673a6;fillColor=#FFE599;" parent="1" vertex="1">
          <mxGeometry x="730" y="-200" width="460" height="186" as="geometry" />
        </mxCell>
        <mxCell id="49kWa-taQujCRStD-I59-15" value="id (PK)" style="text;strokeColor=#000000;fillColor=none;spacingLeft=4;spacingRight=4;overflow=hidden;rotatable=0;points=[[0,0.5],[1,0.5]];portConstraint=eastwest;fontSize=12;" parent="49kWa-taQujCRStD-I59-14" vertex="1">
          <mxGeometry y="26" width="460" height="26" as="geometry" />
        </mxCell>
        <mxCell id="xNZ4ATSNOMt5Z4T5nZos-2" value="product_type (enum) : Options include standard, gift_card" style="text;strokeColor=#000000;fillColor=none;spacingLeft=4;spacingRight=4;overflow=hidden;rotatable=0;points=[[0,0.5],[1,0.5]];portConstraint=eastwest;fontSize=12;" parent="49kWa-taQujCRStD-I59-14" vertex="1">
          <mxGeometry y="52" width="460" height="26" as="geometry" />
        </mxCell>
        <mxCell id="49kWa-taQujCRStD-I59-20" value="status (enum): Options include &quot;drafted&quot;, &quot;published&quot;, &quot;archived&quot;.  Explanation: We&#xa;can save new products as a draft and work on them iteratively until they’re complete &#xa;and ready to be made available to selected sales channels with a published status. &#xa;We, also archive products we&#39;re no longer selling to keep your product list&#xa;organised and free of clutter, while retaining all product information." style="text;strokeColor=#000000;fillColor=none;spacingLeft=4;spacingRight=4;overflow=hidden;rotatable=0;points=[[0,0.5],[1,0.5]];portConstraint=eastwest;fontSize=12;fontStyle=0" parent="49kWa-taQujCRStD-I59-14" vertex="1">
          <mxGeometry y="78" width="460" height="82" as="geometry" />
        </mxCell>
        <mxCell id="49kWa-taQujCRStD-I59-27" value="data (jsonb)" style="text;strokeColor=#000000;fillColor=none;spacingLeft=4;spacingRight=4;overflow=hidden;rotatable=0;points=[[0,0.5],[1,0.5]];portConstraint=eastwest;fontSize=12;" parent="49kWa-taQujCRStD-I59-14" vertex="1">
          <mxGeometry y="160" width="460" height="26" as="geometry" />
        </mxCell>
        <mxCell id="49kWa-taQujCRStD-I59-29" value="Product::OptionType" style="swimlane;fontStyle=1;childLayout=stackLayout;horizontal=1;startSize=26;horizontalStack=0;resizeParent=1;resizeParentMax=0;resizeLast=0;collapsible=1;marginBottom=0;align=center;fontSize=14;strokeColor=#9673a6;fillColor=#FFE599;" parent="1" vertex="1">
          <mxGeometry x="1280" y="-600" width="280" height="192" as="geometry" />
        </mxCell>
        <mxCell id="49kWa-taQujCRStD-I59-30" value="id (PK)" style="text;strokeColor=#000000;fillColor=none;spacingLeft=4;spacingRight=4;overflow=hidden;rotatable=0;points=[[0,0.5],[1,0.5]];portConstraint=eastwest;fontSize=12;" parent="49kWa-taQujCRStD-I59-29" vertex="1">
          <mxGeometry y="26" width="280" height="26" as="geometry" />
        </mxCell>
        <mxCell id="49kWa-taQujCRStD-I59-33" value="product_id (FK)" style="text;strokeColor=#000000;fillColor=none;spacingLeft=4;spacingRight=4;overflow=hidden;rotatable=0;points=[[0,0.5],[1,0.5]];portConstraint=eastwest;fontSize=12;" parent="49kWa-taQujCRStD-I59-29" vertex="1">
          <mxGeometry y="52" width="280" height="26" as="geometry" />
        </mxCell>
        <mxCell id="49kWa-taQujCRStD-I59-31" value="name (string) e.g (Format: HardCover, PaperBack)&#xa;(Condition: New, Used, Refurbished)" style="text;strokeColor=#000000;fillColor=none;spacingLeft=4;spacingRight=4;overflow=hidden;rotatable=0;points=[[0,0.5],[1,0.5]];portConstraint=eastwest;fontSize=12;fontStyle=0" parent="49kWa-taQujCRStD-I59-29" vertex="1">
          <mxGeometry y="78" width="280" height="42" as="geometry" />
        </mxCell>
        <mxCell id="A97aOiuL6e9JtIXtelht-19" value="description (text) : This acts as a help text for the &#xa;customer" style="text;strokeColor=#000000;fillColor=none;spacingLeft=4;spacingRight=4;overflow=hidden;rotatable=0;points=[[0,0.5],[1,0.5]];portConstraint=eastwest;fontSize=12;fontStyle=0" parent="49kWa-taQujCRStD-I59-29" vertex="1">
          <mxGeometry y="120" width="280" height="44" as="geometry" />
        </mxCell>
        <mxCell id="IhNO1zzbE4TS1bx1REmc-3" value="position (integer)" style="text;strokeColor=#000000;fillColor=none;spacingLeft=4;spacingRight=4;overflow=hidden;rotatable=0;points=[[0,0.5],[1,0.5]];portConstraint=eastwest;fontSize=12;fontStyle=0" parent="49kWa-taQujCRStD-I59-29" vertex="1">
          <mxGeometry y="164" width="280" height="28" as="geometry" />
        </mxCell>
        <mxCell id="-MTvJyrtgdokTE8N0LGK-1" value="Location (sti : [ Location::Inventory, Location::LocalPickup ]) " style="swimlane;fontStyle=1;childLayout=stackLayout;horizontal=1;startSize=26;horizontalStack=0;resizeParent=1;resizeParentMax=0;resizeLast=0;collapsible=1;marginBottom=0;align=center;fontSize=14;strokeColor=#9673a6;fillColor=#FFE599;" parent="1" vertex="1">
          <mxGeometry x="120" y="-120" width="440" height="300" as="geometry" />
        </mxCell>
        <mxCell id="-MTvJyrtgdokTE8N0LGK-2" value="id (PK)" style="text;strokeColor=#000000;fillColor=none;spacingLeft=4;spacingRight=4;overflow=hidden;rotatable=0;points=[[0,0.5],[1,0.5]];portConstraint=eastwest;fontSize=12;" parent="-MTvJyrtgdokTE8N0LGK-1" vertex="1">
          <mxGeometry y="26" width="440" height="26" as="geometry" />
        </mxCell>
        <mxCell id="93qC_zg4oYfhFcOvwt_j-2" value="name (string)" style="text;strokeColor=#000000;fillColor=none;spacingLeft=4;spacingRight=4;overflow=hidden;rotatable=0;points=[[0,0.5],[1,0.5]];portConstraint=eastwest;fontSize=12;" vertex="1" parent="-MTvJyrtgdokTE8N0LGK-1">
          <mxGeometry y="52" width="440" height="26" as="geometry" />
        </mxCell>
        <mxCell id="93qC_zg4oYfhFcOvwt_j-3" value="details (rich text powered by ActionText) : You can detail open&#xa;business hours for Location::LocalPickup" style="text;strokeColor=#000000;fillColor=none;spacingLeft=4;spacingRight=4;overflow=hidden;rotatable=0;points=[[0,0.5],[1,0.5]];portConstraint=eastwest;fontSize=12;" vertex="1" parent="-MTvJyrtgdokTE8N0LGK-1">
          <mxGeometry y="78" width="440" height="42" as="geometry" />
        </mxCell>
        <mxCell id="-MTvJyrtgdokTE8N0LGK-9" value="location_type (enum): Options are &quot;local_pickup&quot;, &quot;inventory&quot; " style="text;strokeColor=#000000;fillColor=none;spacingLeft=4;spacingRight=4;overflow=hidden;rotatable=0;points=[[0,0.5],[1,0.5]];portConstraint=eastwest;fontSize=12;" parent="-MTvJyrtgdokTE8N0LGK-1" vertex="1">
          <mxGeometry y="120" width="440" height="26" as="geometry" />
        </mxCell>
        <mxCell id="-MTvJyrtgdokTE8N0LGK-10" value="active (boolean) : when location is active then the store staff can stock &#xa;inventory and fulfil orders" style="text;strokeColor=#000000;fillColor=none;spacingLeft=4;spacingRight=4;overflow=hidden;rotatable=0;points=[[0,0.5],[1,0.5]];portConstraint=eastwest;fontSize=12;" parent="-MTvJyrtgdokTE8N0LGK-1" vertex="1">
          <mxGeometry y="146" width="440" height="42" as="geometry" />
        </mxCell>
        <mxCell id="-MTvJyrtgdokTE8N0LGK-11" value="default (boolean) :  " style="text;strokeColor=#000000;fillColor=none;spacingLeft=4;spacingRight=4;overflow=hidden;rotatable=0;points=[[0,0.5],[1,0.5]];portConstraint=eastwest;fontSize=12;" parent="-MTvJyrtgdokTE8N0LGK-1" vertex="1">
          <mxGeometry y="188" width="440" height="26" as="geometry" />
        </mxCell>
        <mxCell id="-MTvJyrtgdokTE8N0LGK-4" value="priority (integer) : For Location::Inventory, when orders are placed through &#xa;any online sales channel, they are assigned to a location where they should &#xa;be fulfilled from based on the priority list and available inventory. For &#xa;Location::LocalPickup, priority will dictate which location is shown first on &#xa;checkout form." style="text;strokeColor=#000000;fillColor=none;spacingLeft=4;spacingRight=4;overflow=hidden;rotatable=0;points=[[0,0.5],[1,0.5]];portConstraint=eastwest;fontSize=12;" parent="-MTvJyrtgdokTE8N0LGK-1" vertex="1">
          <mxGeometry y="214" width="440" height="86" as="geometry" />
        </mxCell>
        <mxCell id="-MTvJyrtgdokTE8N0LGK-5" value="Product::OptionValue" style="swimlane;fontStyle=1;childLayout=stackLayout;horizontal=1;startSize=26;horizontalStack=0;resizeParent=1;resizeParentMax=0;resizeLast=0;collapsible=1;marginBottom=0;align=center;fontSize=14;strokeColor=#9673a6;fillColor=#FFE599;" parent="1" vertex="1">
          <mxGeometry x="1280" y="-800" width="280" height="134" as="geometry" />
        </mxCell>
        <mxCell id="-MTvJyrtgdokTE8N0LGK-6" value="id (PK)" style="text;strokeColor=#000000;fillColor=none;spacingLeft=4;spacingRight=4;overflow=hidden;rotatable=0;points=[[0,0.5],[1,0.5]];portConstraint=eastwest;fontSize=12;" parent="-MTvJyrtgdokTE8N0LGK-5" vertex="1">
          <mxGeometry y="26" width="280" height="26" as="geometry" />
        </mxCell>
        <mxCell id="-MTvJyrtgdokTE8N0LGK-7" value="product_option_type_id (FK)" style="text;strokeColor=#000000;fillColor=none;spacingLeft=4;spacingRight=4;overflow=hidden;rotatable=0;points=[[0,0.5],[1,0.5]];portConstraint=eastwest;fontSize=12;" parent="-MTvJyrtgdokTE8N0LGK-5" vertex="1">
          <mxGeometry y="52" width="280" height="26" as="geometry" />
        </mxCell>
        <mxCell id="-MTvJyrtgdokTE8N0LGK-8" value="value (string)" style="text;strokeColor=#000000;fillColor=none;spacingLeft=4;spacingRight=4;overflow=hidden;rotatable=0;points=[[0,0.5],[1,0.5]];portConstraint=eastwest;fontSize=12;fontStyle=0" parent="-MTvJyrtgdokTE8N0LGK-5" vertex="1">
          <mxGeometry y="78" width="280" height="28" as="geometry" />
        </mxCell>
        <mxCell id="IhNO1zzbE4TS1bx1REmc-1" value="position (integer)" style="text;strokeColor=#000000;fillColor=none;spacingLeft=4;spacingRight=4;overflow=hidden;rotatable=0;points=[[0,0.5],[1,0.5]];portConstraint=eastwest;fontSize=12;fontStyle=0" parent="-MTvJyrtgdokTE8N0LGK-5" vertex="1">
          <mxGeometry y="106" width="280" height="28" as="geometry" />
        </mxCell>
        <mxCell id="A97aOiuL6e9JtIXtelht-1" value="Collection" style="swimlane;fontStyle=1;childLayout=stackLayout;horizontal=1;startSize=26;horizontalStack=0;resizeParent=1;resizeParentMax=0;resizeLast=0;collapsible=1;marginBottom=0;align=center;fontSize=14;strokeColor=#9673a6;fillColor=#FFE599;" parent="1" vertex="1">
          <mxGeometry x="1280" y="-200" width="300" height="180" as="geometry" />
        </mxCell>
        <mxCell id="A97aOiuL6e9JtIXtelht-2" value="id (PK)" style="text;strokeColor=#000000;fillColor=none;spacingLeft=4;spacingRight=4;overflow=hidden;rotatable=0;points=[[0,0.5],[1,0.5]];portConstraint=eastwest;fontSize=12;" parent="A97aOiuL6e9JtIXtelht-1" vertex="1">
          <mxGeometry y="26" width="300" height="26" as="geometry" />
        </mxCell>
        <mxCell id="A97aOiuL6e9JtIXtelht-3" value="name (string)" style="text;strokeColor=#000000;fillColor=none;spacingLeft=4;spacingRight=4;overflow=hidden;rotatable=0;points=[[0,0.5],[1,0.5]];portConstraint=eastwest;fontSize=12;" parent="A97aOiuL6e9JtIXtelht-1" vertex="1">
          <mxGeometry y="52" width="300" height="26" as="geometry" />
        </mxCell>
        <mxCell id="A97aOiuL6e9JtIXtelht-4" value="description (rich text powered by Action Text): " style="text;strokeColor=#000000;fillColor=none;spacingLeft=4;spacingRight=4;overflow=hidden;rotatable=0;points=[[0,0.5],[1,0.5]];portConstraint=eastwest;fontSize=12;" parent="A97aOiuL6e9JtIXtelht-1" vertex="1">
          <mxGeometry y="78" width="300" height="32" as="geometry" />
        </mxCell>
        <mxCell id="A97aOiuL6e9JtIXtelht-5" value="background_image (activestorage) : optional" style="text;strokeColor=#000000;fillColor=none;spacingLeft=4;spacingRight=4;overflow=hidden;rotatable=0;points=[[0,0.5],[1,0.5]];portConstraint=eastwest;fontSize=12;" parent="A97aOiuL6e9JtIXtelht-1" vertex="1">
          <mxGeometry y="110" width="300" height="26" as="geometry" />
        </mxCell>
        <mxCell id="A97aOiuL6e9JtIXtelht-6" value="collection_type (enum) : Options include &quot;manual&quot;,  &#xa;&quot;automated&quot;" style="text;strokeColor=#000000;fillColor=none;spacingLeft=4;spacingRight=4;overflow=hidden;rotatable=0;points=[[0,0.5],[1,0.5]];portConstraint=eastwest;fontSize=12;" parent="A97aOiuL6e9JtIXtelht-1" vertex="1">
          <mxGeometry y="136" width="300" height="44" as="geometry" />
        </mxCell>
        <mxCell id="A97aOiuL6e9JtIXtelht-7" value="Navigation::MenuItem (polymorphic)" style="swimlane;fontStyle=1;childLayout=stackLayout;horizontal=1;startSize=26;horizontalStack=0;resizeParent=1;resizeParentMax=0;resizeLast=0;collapsible=1;marginBottom=0;align=center;fontSize=14;strokeColor=#9673a6;fillColor=#FFE599;" parent="1" vertex="1">
          <mxGeometry x="1720" y="-200" width="420" height="286" as="geometry" />
        </mxCell>
        <mxCell id="A97aOiuL6e9JtIXtelht-8" value="id (PK)" style="text;strokeColor=#000000;fillColor=none;spacingLeft=4;spacingRight=4;overflow=hidden;rotatable=0;points=[[0,0.5],[1,0.5]];portConstraint=eastwest;fontSize=12;" parent="A97aOiuL6e9JtIXtelht-7" vertex="1">
          <mxGeometry y="26" width="420" height="26" as="geometry" />
        </mxCell>
        <mxCell id="A97aOiuL6e9JtIXtelht-13" value="navigation_menu_itemable_id (FK)" style="text;strokeColor=#000000;fillColor=none;spacingLeft=4;spacingRight=4;overflow=hidden;rotatable=0;points=[[0,0.5],[1,0.5]];portConstraint=eastwest;fontSize=12;" parent="A97aOiuL6e9JtIXtelht-7" vertex="1">
          <mxGeometry y="52" width="420" height="26" as="geometry" />
        </mxCell>
        <mxCell id="A97aOiuL6e9JtIXtelht-14" value="navigation_menu_itemable_type (string)" style="text;strokeColor=#000000;fillColor=none;spacingLeft=4;spacingRight=4;overflow=hidden;rotatable=0;points=[[0,0.5],[1,0.5]];portConstraint=eastwest;fontSize=12;" parent="A97aOiuL6e9JtIXtelht-7" vertex="1">
          <mxGeometry y="78" width="420" height="26" as="geometry" />
        </mxCell>
        <mxCell id="A97aOiuL6e9JtIXtelht-9" value="name (string)" style="text;strokeColor=#000000;fillColor=none;spacingLeft=4;spacingRight=4;overflow=hidden;rotatable=0;points=[[0,0.5],[1,0.5]];portConstraint=eastwest;fontSize=12;" parent="A97aOiuL6e9JtIXtelht-7" vertex="1">
          <mxGeometry y="104" width="420" height="26" as="geometry" />
        </mxCell>
        <mxCell id="A97aOiuL6e9JtIXtelht-12" value="path (string) : uses path enumeration/materialized paths on the ids e.g 1/2/3 &#xa;would mean the current menu item is a child of menu item with id 2 and &#xa;menu item 2 is a child of menu item with id 1. Basically this stores its entire &#xa;ancestral path, from the root node, down to the node itself " style="text;strokeColor=#000000;fillColor=none;spacingLeft=4;spacingRight=4;overflow=hidden;rotatable=0;points=[[0,0.5],[1,0.5]];portConstraint=eastwest;fontSize=12;" parent="A97aOiuL6e9JtIXtelht-7" vertex="1">
          <mxGeometry y="130" width="420" height="70" as="geometry" />
        </mxCell>
        <mxCell id="IhNO1zzbE4TS1bx1REmc-42" value="url (text) : The URL of the page that the navigation item links to. This&#xa;is optional and when not provided, the url is constructed based on&#xa;the navigation_menu_itemable_type." style="text;strokeColor=#000000;fillColor=none;spacingLeft=4;spacingRight=4;overflow=hidden;rotatable=0;points=[[0,0.5],[1,0.5]];portConstraint=eastwest;fontSize=12;" parent="A97aOiuL6e9JtIXtelht-7" vertex="1">
          <mxGeometry y="200" width="420" height="60" as="geometry" />
        </mxCell>
        <mxCell id="IhNO1zzbE4TS1bx1REmc-43" value="sibling_position (integer)" style="text;strokeColor=#000000;fillColor=none;spacingLeft=4;spacingRight=4;overflow=hidden;rotatable=0;points=[[0,0.5],[1,0.5]];portConstraint=eastwest;fontSize=12;" parent="A97aOiuL6e9JtIXtelht-7" vertex="1">
          <mxGeometry y="260" width="420" height="26" as="geometry" />
        </mxCell>
        <mxCell id="A97aOiuL6e9JtIXtelht-15" value="Product::OptionValueVariant" style="swimlane;fontStyle=1;childLayout=stackLayout;horizontal=1;startSize=26;horizontalStack=0;resizeParent=1;resizeParentMax=0;resizeLast=0;collapsible=1;marginBottom=0;align=center;fontSize=14;strokeColor=#9673a6;fillColor=#FFE599;" parent="1" vertex="1">
          <mxGeometry x="1080" y="-990" width="280" height="106" as="geometry" />
        </mxCell>
        <mxCell id="A97aOiuL6e9JtIXtelht-16" value="id (PK)" style="text;strokeColor=#000000;fillColor=none;spacingLeft=4;spacingRight=4;overflow=hidden;rotatable=0;points=[[0,0.5],[1,0.5]];portConstraint=eastwest;fontSize=12;" parent="A97aOiuL6e9JtIXtelht-15" vertex="1">
          <mxGeometry y="26" width="280" height="26" as="geometry" />
        </mxCell>
        <mxCell id="A97aOiuL6e9JtIXtelht-17" value="product_variant (FK)" style="text;strokeColor=#000000;fillColor=none;spacingLeft=4;spacingRight=4;overflow=hidden;rotatable=0;points=[[0,0.5],[1,0.5]];portConstraint=eastwest;fontSize=12;" parent="A97aOiuL6e9JtIXtelht-15" vertex="1">
          <mxGeometry y="52" width="280" height="26" as="geometry" />
        </mxCell>
        <mxCell id="A97aOiuL6e9JtIXtelht-18" value="product_option_value_id (FK)" style="text;strokeColor=#000000;fillColor=none;spacingLeft=4;spacingRight=4;overflow=hidden;rotatable=0;points=[[0,0.5],[1,0.5]];portConstraint=eastwest;fontSize=12;fontStyle=0" parent="A97aOiuL6e9JtIXtelht-15" vertex="1">
          <mxGeometry y="78" width="280" height="28" as="geometry" />
        </mxCell>
        <mxCell id="5EAPZrsPtRcHzYcJFA_N-2" value="Customer::PriceList (polymorphic)" style="swimlane;fontStyle=1;childLayout=stackLayout;horizontal=1;startSize=26;horizontalStack=0;resizeParent=1;resizeParentMax=0;resizeLast=0;collapsible=1;marginBottom=0;align=center;fontSize=14;strokeColor=#9673a6;fillColor=#FFE599;" parent="1" vertex="1">
          <mxGeometry x="120" y="-1060" width="440" height="358" as="geometry" />
        </mxCell>
        <mxCell id="5EAPZrsPtRcHzYcJFA_N-3" value="id (PK)" style="text;strokeColor=#000000;fillColor=none;spacingLeft=4;spacingRight=4;overflow=hidden;rotatable=0;points=[[0,0.5],[1,0.5]];portConstraint=eastwest;fontSize=12;" parent="5EAPZrsPtRcHzYcJFA_N-2" vertex="1">
          <mxGeometry y="26" width="440" height="26" as="geometry" />
        </mxCell>
        <mxCell id="5EAPZrsPtRcHzYcJFA_N-4" value="customer_price_listable_id (FK)" style="text;strokeColor=#000000;fillColor=none;spacingLeft=4;spacingRight=4;overflow=hidden;rotatable=0;points=[[0,0.5],[1,0.5]];portConstraint=eastwest;fontSize=12;" parent="5EAPZrsPtRcHzYcJFA_N-2" vertex="1">
          <mxGeometry y="52" width="440" height="26" as="geometry" />
        </mxCell>
        <mxCell id="5EAPZrsPtRcHzYcJFA_N-8" value="customer_price_listable_type (string) : &quot;Product::Variant&quot; or &quot;ProductBundle&quot; &#xa;or &quot;Product::Variant::ModifierField&quot;" style="text;strokeColor=#000000;fillColor=none;spacingLeft=4;spacingRight=4;overflow=hidden;rotatable=0;points=[[0,0.5],[1,0.5]];portConstraint=eastwest;fontSize=12;" parent="5EAPZrsPtRcHzYcJFA_N-2" vertex="1">
          <mxGeometry y="78" width="440" height="42" as="geometry" />
        </mxCell>
        <mxCell id="5EAPZrsPtRcHzYcJFA_N-5" value="price_list_type (enum) : Options include &quot;basic&quot;, &quot;volume&quot; and &quot;tiered&quot;" style="text;strokeColor=#000000;fillColor=none;spacingLeft=4;spacingRight=4;overflow=hidden;rotatable=0;points=[[0,0.5],[1,0.5]];portConstraint=eastwest;fontSize=12;" parent="5EAPZrsPtRcHzYcJFA_N-2" vertex="1">
          <mxGeometry y="120" width="440" height="26" as="geometry" />
        </mxCell>
        <mxCell id="5EAPZrsPtRcHzYcJFA_N-6" value="minimum_quantity (integer) : customers need to order enough to &#xa;apply this price list. The minimum quantity for which this Customer::Price &#xa;applies. If there is a Customer::Price with higher starting quantity that still &#xa;applies to this." style="text;strokeColor=#000000;fillColor=none;spacingLeft=4;spacingRight=4;overflow=hidden;rotatable=0;points=[[0,0.5],[1,0.5]];portConstraint=eastwest;fontSize=12;" parent="5EAPZrsPtRcHzYcJFA_N-2" vertex="1">
          <mxGeometry y="146" width="440" height="70" as="geometry" />
        </mxCell>
        <mxCell id="5EAPZrsPtRcHzYcJFA_N-9" value="increment_quantity (integer) : purchase in multiples of x" style="text;strokeColor=#000000;fillColor=none;spacingLeft=4;spacingRight=4;overflow=hidden;rotatable=0;points=[[0,0.5],[1,0.5]];portConstraint=eastwest;fontSize=12;" parent="5EAPZrsPtRcHzYcJFA_N-2" vertex="1">
          <mxGeometry y="216" width="440" height="26" as="geometry" />
        </mxCell>
        <mxCell id="xNZ4ATSNOMt5Z4T5nZos-1" value="display_price (string)" style="text;strokeColor=#000000;fillColor=none;spacingLeft=4;spacingRight=4;overflow=hidden;rotatable=0;points=[[0,0.5],[1,0.5]];portConstraint=eastwest;fontSize=12;" parent="5EAPZrsPtRcHzYcJFA_N-2" vertex="1">
          <mxGeometry y="242" width="440" height="26" as="geometry" />
        </mxCell>
        <mxCell id="5EAPZrsPtRcHzYcJFA_N-7" value="price_cents (integer)" style="text;strokeColor=#000000;fillColor=none;spacingLeft=4;spacingRight=4;overflow=hidden;rotatable=0;points=[[0,0.5],[1,0.5]];portConstraint=eastwest;fontSize=12;" parent="5EAPZrsPtRcHzYcJFA_N-2" vertex="1">
          <mxGeometry y="268" width="440" height="26" as="geometry" />
        </mxCell>
        <mxCell id="5EAPZrsPtRcHzYcJFA_N-10" value="price_currency (string)" style="text;strokeColor=#000000;fillColor=none;spacingLeft=4;spacingRight=4;overflow=hidden;rotatable=0;points=[[0,0.5],[1,0.5]];portConstraint=eastwest;fontSize=12;" parent="5EAPZrsPtRcHzYcJFA_N-2" vertex="1">
          <mxGeometry y="294" width="440" height="26" as="geometry" />
        </mxCell>
        <mxCell id="5EAPZrsPtRcHzYcJFA_N-11" value="customer_group (enum) : value should be retrieved from the&#xa;customer_groups enum " style="text;strokeColor=#000000;fillColor=none;spacingLeft=4;spacingRight=4;overflow=hidden;rotatable=0;points=[[0,0.5],[1,0.5]];portConstraint=eastwest;fontSize=12;" parent="5EAPZrsPtRcHzYcJFA_N-2" vertex="1">
          <mxGeometry y="320" width="440" height="38" as="geometry" />
        </mxCell>
        <mxCell id="IhNO1zzbE4TS1bx1REmc-4" value="Product::Variant::ModifierField (sti)" style="swimlane;fontStyle=1;childLayout=stackLayout;horizontal=1;startSize=26;horizontalStack=0;resizeParent=1;resizeParentMax=0;resizeLast=0;collapsible=1;marginBottom=0;align=center;fontSize=14;strokeColor=#9673a6;fillColor=#FFE599;" parent="1" vertex="1">
          <mxGeometry x="120" y="-659" width="440" height="272" as="geometry" />
        </mxCell>
        <mxCell id="IhNO1zzbE4TS1bx1REmc-5" value="id (PK)" style="text;strokeColor=#000000;fillColor=none;spacingLeft=4;spacingRight=4;overflow=hidden;rotatable=0;points=[[0,0.5],[1,0.5]];portConstraint=eastwest;fontSize=12;" parent="IhNO1zzbE4TS1bx1REmc-4" vertex="1">
          <mxGeometry y="26" width="440" height="26" as="geometry" />
        </mxCell>
        <mxCell id="IhNO1zzbE4TS1bx1REmc-11" value="product_variant_id (FK)" style="text;strokeColor=#000000;fillColor=none;spacingLeft=4;spacingRight=4;overflow=hidden;rotatable=0;points=[[0,0.5],[1,0.5]];portConstraint=eastwest;fontSize=12;" parent="IhNO1zzbE4TS1bx1REmc-4" vertex="1">
          <mxGeometry y="52" width="440" height="26" as="geometry" />
        </mxCell>
        <mxCell id="IhNO1zzbE4TS1bx1REmc-6" value="label (string)" style="text;strokeColor=#000000;fillColor=none;spacingLeft=4;spacingRight=4;overflow=hidden;rotatable=0;points=[[0,0.5],[1,0.5]];portConstraint=eastwest;fontSize=12;" parent="IhNO1zzbE4TS1bx1REmc-4" vertex="1">
          <mxGeometry y="78" width="440" height="26" as="geometry" />
        </mxCell>
        <mxCell id="IhNO1zzbE4TS1bx1REmc-7" value="help_text (text) : Text that appears as a sub-heading to the field label or &#xa;as a tooltip, but doesn’t appear in the field entry area. " style="text;strokeColor=#000000;fillColor=none;spacingLeft=4;spacingRight=4;overflow=hidden;rotatable=0;points=[[0,0.5],[1,0.5]];portConstraint=eastwest;fontSize=12;" parent="IhNO1zzbE4TS1bx1REmc-4" vertex="1">
          <mxGeometry y="104" width="440" height="36" as="geometry" />
        </mxCell>
        <mxCell id="IhNO1zzbE4TS1bx1REmc-9" value="placeholder (string) :  Text in the field entry area that isn’t submitted if the field &#xa;is left untouched by the user." style="text;strokeColor=#000000;fillColor=none;spacingLeft=4;spacingRight=4;overflow=hidden;rotatable=0;points=[[0,0.5],[1,0.5]];portConstraint=eastwest;fontSize=12;" parent="IhNO1zzbE4TS1bx1REmc-4" vertex="1">
          <mxGeometry y="140" width="440" height="40" as="geometry" />
        </mxCell>
        <mxCell id="IhNO1zzbE4TS1bx1REmc-8" value="required (boolean)" style="text;strokeColor=#000000;fillColor=none;spacingLeft=4;spacingRight=4;overflow=hidden;rotatable=0;points=[[0,0.5],[1,0.5]];portConstraint=eastwest;fontSize=12;" parent="IhNO1zzbE4TS1bx1REmc-4" vertex="1">
          <mxGeometry y="180" width="440" height="26" as="geometry" />
        </mxCell>
        <mxCell id="IhNO1zzbE4TS1bx1REmc-10" value="field_type (enum) : Options include &quot;text_field&quot;, &quot;text_area&quot;, &quot;number_field&quot;, &#xa;&quot;date_field&quot;, &quot;file_field&quot;" style="text;strokeColor=#000000;fillColor=none;spacingLeft=4;spacingRight=4;overflow=hidden;rotatable=0;points=[[0,0.5],[1,0.5]];portConstraint=eastwest;fontSize=12;" parent="IhNO1zzbE4TS1bx1REmc-4" vertex="1">
          <mxGeometry y="206" width="440" height="40" as="geometry" />
        </mxCell>
        <mxCell id="IhNO1zzbE4TS1bx1REmc-35" value="position (integer) : The order the modifiers display on the product detail page.&#xa;" style="text;strokeColor=#000000;fillColor=none;spacingLeft=4;spacingRight=4;overflow=hidden;rotatable=0;points=[[0,0.5],[1,0.5]];portConstraint=eastwest;fontSize=12;" parent="IhNO1zzbE4TS1bx1REmc-4" vertex="1">
          <mxGeometry y="246" width="440" height="26" as="geometry" />
        </mxCell>
        <mxCell id="IhNO1zzbE4TS1bx1REmc-12" value="Product::Variant::ModifierFieldValue" style="swimlane;fontStyle=1;childLayout=stackLayout;horizontal=1;startSize=26;horizontalStack=0;resizeParent=1;resizeParentMax=0;resizeLast=0;collapsible=1;marginBottom=0;align=center;fontSize=14;strokeColor=#9673a6;fillColor=#FFE599;" parent="1" vertex="1">
          <mxGeometry x="-420" y="-680" width="420" height="126" as="geometry" />
        </mxCell>
        <mxCell id="IhNO1zzbE4TS1bx1REmc-13" value="id (PK)" style="text;strokeColor=#000000;fillColor=none;spacingLeft=4;spacingRight=4;overflow=hidden;rotatable=0;points=[[0,0.5],[1,0.5]];portConstraint=eastwest;fontSize=12;" parent="IhNO1zzbE4TS1bx1REmc-12" vertex="1">
          <mxGeometry y="26" width="420" height="26" as="geometry" />
        </mxCell>
        <mxCell id="IhNO1zzbE4TS1bx1REmc-14" value="product_variant_input_field_id (FK)" style="text;strokeColor=#000000;fillColor=none;spacingLeft=4;spacingRight=4;overflow=hidden;rotatable=0;points=[[0,0.5],[1,0.5]];portConstraint=eastwest;fontSize=12;" parent="IhNO1zzbE4TS1bx1REmc-12" vertex="1">
          <mxGeometry y="52" width="420" height="26" as="geometry" />
        </mxCell>
        <mxCell id="IhNO1zzbE4TS1bx1REmc-15" value="sales_order_line_item_id (FK)" style="text;strokeColor=#000000;fillColor=none;spacingLeft=4;spacingRight=4;overflow=hidden;rotatable=0;points=[[0,0.5],[1,0.5]];portConstraint=eastwest;fontSize=12;" parent="IhNO1zzbE4TS1bx1REmc-12" vertex="1">
          <mxGeometry y="78" width="420" height="26" as="geometry" />
        </mxCell>
        <mxCell id="IhNO1zzbE4TS1bx1REmc-16" value="value (jsonb)" style="text;strokeColor=#000000;fillColor=none;spacingLeft=4;spacingRight=4;overflow=hidden;rotatable=0;points=[[0,0.5],[1,0.5]];portConstraint=eastwest;fontSize=12;" parent="IhNO1zzbE4TS1bx1REmc-12" vertex="1">
          <mxGeometry y="104" width="420" height="22" as="geometry" />
        </mxCell>
        <mxCell id="IhNO1zzbE4TS1bx1REmc-26" value="Product::Variant::Inventory" style="swimlane;fontStyle=1;childLayout=stackLayout;horizontal=1;startSize=26;horizontalStack=0;resizeParent=1;resizeParentMax=0;resizeLast=0;collapsible=1;marginBottom=0;align=center;fontSize=14;strokeColor=#9673a6;fillColor=#FFE599;" parent="1" vertex="1">
          <mxGeometry x="120" y="-360" width="440" height="220" as="geometry" />
        </mxCell>
        <mxCell id="IhNO1zzbE4TS1bx1REmc-27" value="id (PK)" style="text;strokeColor=#000000;fillColor=none;spacingLeft=4;spacingRight=4;overflow=hidden;rotatable=0;points=[[0,0.5],[1,0.5]];portConstraint=eastwest;fontSize=12;" parent="IhNO1zzbE4TS1bx1REmc-26" vertex="1">
          <mxGeometry y="26" width="440" height="26" as="geometry" />
        </mxCell>
        <mxCell id="IhNO1zzbE4TS1bx1REmc-34" value="product_variant_id (FK)" style="text;strokeColor=#000000;fillColor=none;spacingLeft=4;spacingRight=4;overflow=hidden;rotatable=0;points=[[0,0.5],[1,0.5]];portConstraint=eastwest;fontSize=12;" parent="IhNO1zzbE4TS1bx1REmc-26" vertex="1">
          <mxGeometry y="52" width="440" height="26" as="geometry" />
        </mxCell>
        <mxCell id="IhNO1zzbE4TS1bx1REmc-28" value="inventory_location_id (FK)" style="text;strokeColor=#000000;fillColor=none;spacingLeft=4;spacingRight=4;overflow=hidden;rotatable=0;points=[[0,0.5],[1,0.5]];portConstraint=eastwest;fontSize=12;" parent="IhNO1zzbE4TS1bx1REmc-26" vertex="1">
          <mxGeometry y="78" width="440" height="26" as="geometry" />
        </mxCell>
        <mxCell id="IhNO1zzbE4TS1bx1REmc-29" value="quantity_on_hand (integer) :number of units in inventory location &#xa;(UPDATED IN LOCK)" style="text;strokeColor=#000000;fillColor=none;spacingLeft=4;spacingRight=4;overflow=hidden;rotatable=0;points=[[0,0.5],[1,0.5]];portConstraint=eastwest;fontSize=12;" parent="IhNO1zzbE4TS1bx1REmc-26" vertex="1">
          <mxGeometry y="104" width="440" height="36" as="geometry" />
        </mxCell>
        <mxCell id="IhNO1zzbE4TS1bx1REmc-30" value="quantity_reserved (integer) : number of units committed to order that are not &#xa;fulfilled (UPDATED IN LOCK)" style="text;strokeColor=#000000;fillColor=none;spacingLeft=4;spacingRight=4;overflow=hidden;rotatable=0;points=[[0,0.5],[1,0.5]];portConstraint=eastwest;fontSize=12;" parent="IhNO1zzbE4TS1bx1REmc-26" vertex="1">
          <mxGeometry y="140" width="440" height="40" as="geometry" />
        </mxCell>
        <mxCell id="JafjkQ3NCWFQFSb00nGx-1" value="low_stock_threshold (integer) : This helps in notifying the merchant team any &#xa;time a product falls below a specified stock level." style="text;strokeColor=#000000;fillColor=none;spacingLeft=4;spacingRight=4;overflow=hidden;rotatable=0;points=[[0,0.5],[1,0.5]];portConstraint=eastwest;fontSize=12;" parent="IhNO1zzbE4TS1bx1REmc-26" vertex="1">
          <mxGeometry y="180" width="440" height="40" as="geometry" />
        </mxCell>
        <mxCell id="IhNO1zzbE4TS1bx1REmc-36" value="Collection::Item (polymorphic)" style="swimlane;fontStyle=1;childLayout=stackLayout;horizontal=1;startSize=26;horizontalStack=0;resizeParent=1;resizeParentMax=0;resizeLast=0;collapsible=1;marginBottom=0;align=center;fontSize=14;strokeColor=#9673a6;fillColor=#FFE599;" parent="1" vertex="1">
          <mxGeometry x="1040" y="120" width="300" height="146" as="geometry" />
        </mxCell>
        <mxCell id="IhNO1zzbE4TS1bx1REmc-37" value="id (PK)" style="text;strokeColor=#000000;fillColor=none;spacingLeft=4;spacingRight=4;overflow=hidden;rotatable=0;points=[[0,0.5],[1,0.5]];portConstraint=eastwest;fontSize=12;" parent="IhNO1zzbE4TS1bx1REmc-36" vertex="1">
          <mxGeometry y="26" width="300" height="26" as="geometry" />
        </mxCell>
        <mxCell id="IhNO1zzbE4TS1bx1REmc-38" value="collectionable_itemable_id (integer)" style="text;strokeColor=#000000;fillColor=none;spacingLeft=4;spacingRight=4;overflow=hidden;rotatable=0;points=[[0,0.5],[1,0.5]];portConstraint=eastwest;fontSize=12;" parent="IhNO1zzbE4TS1bx1REmc-36" vertex="1">
          <mxGeometry y="52" width="300" height="26" as="geometry" />
        </mxCell>
        <mxCell id="IhNO1zzbE4TS1bx1REmc-39" value="collectionable_itemable_type (string) : &quot;Product&quot; or &#xa;&quot;ProductBundle&quot;" style="text;strokeColor=#000000;fillColor=none;spacingLeft=4;spacingRight=4;overflow=hidden;rotatable=0;points=[[0,0.5],[1,0.5]];portConstraint=eastwest;fontSize=12;" parent="IhNO1zzbE4TS1bx1REmc-36" vertex="1">
          <mxGeometry y="78" width="300" height="42" as="geometry" />
        </mxCell>
        <mxCell id="IhNO1zzbE4TS1bx1REmc-40" value="collection_id (FK)" style="text;strokeColor=#000000;fillColor=none;spacingLeft=4;spacingRight=4;overflow=hidden;rotatable=0;points=[[0,0.5],[1,0.5]];portConstraint=eastwest;fontSize=12;" parent="IhNO1zzbE4TS1bx1REmc-36" vertex="1">
          <mxGeometry y="120" width="300" height="26" as="geometry" />
        </mxCell>
        <mxCell id="NdFbpm1k1_LlCCe0Vx4J-1" value="SearchEngineOptimization::Listing (polymorphic)" style="swimlane;fontStyle=1;childLayout=stackLayout;horizontal=1;startSize=26;horizontalStack=0;resizeParent=1;resizeParentMax=0;resizeLast=0;collapsible=1;marginBottom=0;align=center;fontSize=14;strokeColor=#9673a6;fillColor=#FFE599;" parent="1" vertex="1">
          <mxGeometry x="400" y="240" width="400" height="184" as="geometry" />
        </mxCell>
        <mxCell id="NdFbpm1k1_LlCCe0Vx4J-2" value="id (PK)" style="text;strokeColor=#000000;fillColor=none;spacingLeft=4;spacingRight=4;overflow=hidden;rotatable=0;points=[[0,0.5],[1,0.5]];portConstraint=eastwest;fontSize=12;" parent="NdFbpm1k1_LlCCe0Vx4J-1" vertex="1">
          <mxGeometry y="26" width="400" height="26" as="geometry" />
        </mxCell>
        <mxCell id="NdFbpm1k1_LlCCe0Vx4J-3" value="search_engine_optimization_listable_id (integer)" style="text;strokeColor=#000000;fillColor=none;spacingLeft=4;spacingRight=4;overflow=hidden;rotatable=0;points=[[0,0.5],[1,0.5]];portConstraint=eastwest;fontSize=12;fontStyle=0" parent="NdFbpm1k1_LlCCe0Vx4J-1" vertex="1">
          <mxGeometry y="52" width="400" height="28" as="geometry" />
        </mxCell>
        <mxCell id="NdFbpm1k1_LlCCe0Vx4J-4" value="search_engine_optimization_listable_type (string) " style="text;strokeColor=#000000;fillColor=none;spacingLeft=4;spacingRight=4;overflow=hidden;rotatable=0;points=[[0,0.5],[1,0.5]];portConstraint=eastwest;fontSize=12;" parent="NdFbpm1k1_LlCCe0Vx4J-1" vertex="1">
          <mxGeometry y="80" width="400" height="26" as="geometry" />
        </mxCell>
        <mxCell id="NdFbpm1k1_LlCCe0Vx4J-5" value="meta_title (string)" style="text;strokeColor=#000000;fillColor=none;spacingLeft=4;spacingRight=4;overflow=hidden;rotatable=0;points=[[0,0.5],[1,0.5]];portConstraint=eastwest;fontSize=12;" parent="NdFbpm1k1_LlCCe0Vx4J-1" vertex="1">
          <mxGeometry y="106" width="400" height="26" as="geometry" />
        </mxCell>
        <mxCell id="NdFbpm1k1_LlCCe0Vx4J-6" value="meta_description (text)" style="text;strokeColor=#000000;fillColor=none;spacingLeft=4;spacingRight=4;overflow=hidden;rotatable=0;points=[[0,0.5],[1,0.5]];portConstraint=eastwest;fontSize=12;" parent="NdFbpm1k1_LlCCe0Vx4J-1" vertex="1">
          <mxGeometry y="132" width="400" height="26" as="geometry" />
        </mxCell>
        <mxCell id="NdFbpm1k1_LlCCe0Vx4J-7" value="meta_image (activestorage)" style="text;strokeColor=#000000;fillColor=none;spacingLeft=4;spacingRight=4;overflow=hidden;rotatable=0;points=[[0,0.5],[1,0.5]];portConstraint=eastwest;fontSize=12;" parent="NdFbpm1k1_LlCCe0Vx4J-1" vertex="1">
          <mxGeometry y="158" width="400" height="26" as="geometry" />
        </mxCell>
        <mxCell id="93qC_zg4oYfhFcOvwt_j-14" value="Enumerations" style="shape=table;html=1;whiteSpace=wrap;startSize=30;container=1;collapsible=0;childLayout=tableLayout;fontStyle=1;align=center;" vertex="1" parent="1">
          <mxGeometry x="-850" y="-1100" width="290" height="450" as="geometry" />
        </mxCell>
        <mxCell id="93qC_zg4oYfhFcOvwt_j-15" value="" style="shape=partialRectangle;html=1;whiteSpace=wrap;collapsible=0;dropTarget=0;pointerEvents=0;fillColor=none;top=0;left=0;bottom=0;right=0;points=[[0,0.5],[1,0.5]];portConstraint=eastwest;" vertex="1" parent="93qC_zg4oYfhFcOvwt_j-14">
          <mxGeometry y="30" width="290" height="50" as="geometry" />
        </mxCell>
        <mxCell id="93qC_zg4oYfhFcOvwt_j-16" value="1." style="shape=partialRectangle;html=1;whiteSpace=wrap;connectable=0;fillColor=none;top=0;left=0;bottom=0;right=0;overflow=hidden;" vertex="1" parent="93qC_zg4oYfhFcOvwt_j-15">
          <mxGeometry width="48" height="50" as="geometry" />
        </mxCell>
        <mxCell id="93qC_zg4oYfhFcOvwt_j-17" value="collection_type" style="shape=partialRectangle;html=1;whiteSpace=wrap;connectable=0;fillColor=none;top=0;left=0;bottom=0;right=0;overflow=hidden;" vertex="1" parent="93qC_zg4oYfhFcOvwt_j-15">
          <mxGeometry x="48" width="113" height="50" as="geometry" />
        </mxCell>
        <mxCell id="93qC_zg4oYfhFcOvwt_j-18" value="• manual&lt;br&gt;•automated" style="shape=partialRectangle;html=1;whiteSpace=wrap;connectable=0;fillColor=none;top=0;left=0;bottom=0;right=0;overflow=hidden;" vertex="1" parent="93qC_zg4oYfhFcOvwt_j-15">
          <mxGeometry x="161" width="129" height="50" as="geometry" />
        </mxCell>
        <mxCell id="93qC_zg4oYfhFcOvwt_j-19" value="" style="shape=partialRectangle;html=1;whiteSpace=wrap;collapsible=0;dropTarget=0;pointerEvents=0;fillColor=none;top=0;left=0;bottom=0;right=0;points=[[0,0.5],[1,0.5]];portConstraint=eastwest;" vertex="1" parent="93qC_zg4oYfhFcOvwt_j-14">
          <mxGeometry y="80" width="290" height="63" as="geometry" />
        </mxCell>
        <mxCell id="93qC_zg4oYfhFcOvwt_j-20" value="2." style="shape=partialRectangle;html=1;whiteSpace=wrap;connectable=0;fillColor=none;top=0;left=0;bottom=0;right=0;overflow=hidden;" vertex="1" parent="93qC_zg4oYfhFcOvwt_j-19">
          <mxGeometry width="48" height="63" as="geometry" />
        </mxCell>
        <mxCell id="93qC_zg4oYfhFcOvwt_j-21" value="product_status" style="shape=partialRectangle;html=1;whiteSpace=wrap;connectable=0;fillColor=none;top=0;left=0;bottom=0;right=0;overflow=hidden;" vertex="1" parent="93qC_zg4oYfhFcOvwt_j-19">
          <mxGeometry x="48" width="113" height="63" as="geometry" />
        </mxCell>
        <mxCell id="93qC_zg4oYfhFcOvwt_j-22" value="• drafted&lt;br&gt;• published&lt;br&gt;• archived" style="shape=partialRectangle;html=1;whiteSpace=wrap;connectable=0;fillColor=none;top=0;left=0;bottom=0;right=0;overflow=hidden;" vertex="1" parent="93qC_zg4oYfhFcOvwt_j-19">
          <mxGeometry x="161" width="129" height="63" as="geometry" />
        </mxCell>
        <mxCell id="93qC_zg4oYfhFcOvwt_j-23" value="" style="shape=partialRectangle;html=1;whiteSpace=wrap;collapsible=0;dropTarget=0;pointerEvents=0;fillColor=none;top=0;left=0;bottom=0;right=0;points=[[0,0.5],[1,0.5]];portConstraint=eastwest;" vertex="1" parent="93qC_zg4oYfhFcOvwt_j-14">
          <mxGeometry y="143" width="290" height="49" as="geometry" />
        </mxCell>
        <mxCell id="93qC_zg4oYfhFcOvwt_j-24" value="3." style="shape=partialRectangle;html=1;whiteSpace=wrap;connectable=0;fillColor=none;top=0;left=0;bottom=0;right=0;overflow=hidden;" vertex="1" parent="93qC_zg4oYfhFcOvwt_j-23">
          <mxGeometry width="48" height="49" as="geometry" />
        </mxCell>
        <mxCell id="93qC_zg4oYfhFcOvwt_j-25" value="product_type" style="shape=partialRectangle;html=1;whiteSpace=wrap;connectable=0;fillColor=none;top=0;left=0;bottom=0;right=0;overflow=hidden;" vertex="1" parent="93qC_zg4oYfhFcOvwt_j-23">
          <mxGeometry x="48" width="113" height="49" as="geometry" />
        </mxCell>
        <mxCell id="93qC_zg4oYfhFcOvwt_j-26" value="• standard&lt;br&gt;• gift_card" style="shape=partialRectangle;html=1;whiteSpace=wrap;connectable=0;fillColor=none;top=0;left=0;bottom=0;right=0;overflow=hidden;" vertex="1" parent="93qC_zg4oYfhFcOvwt_j-23">
          <mxGeometry x="161" width="129" height="49" as="geometry" />
        </mxCell>
        <mxCell id="93qC_zg4oYfhFcOvwt_j-27" style="shape=partialRectangle;html=1;whiteSpace=wrap;collapsible=0;dropTarget=0;pointerEvents=0;fillColor=none;top=0;left=0;bottom=0;right=0;points=[[0,0.5],[1,0.5]];portConstraint=eastwest;" vertex="1" parent="93qC_zg4oYfhFcOvwt_j-14">
          <mxGeometry y="192" width="290" height="50" as="geometry" />
        </mxCell>
        <mxCell id="93qC_zg4oYfhFcOvwt_j-28" value="4." style="shape=partialRectangle;html=1;whiteSpace=wrap;connectable=0;fillColor=none;top=0;left=0;bottom=0;right=0;overflow=hidden;" vertex="1" parent="93qC_zg4oYfhFcOvwt_j-27">
          <mxGeometry width="48" height="50" as="geometry" />
        </mxCell>
        <mxCell id="93qC_zg4oYfhFcOvwt_j-29" value="location_type" style="shape=partialRectangle;html=1;whiteSpace=wrap;connectable=0;fillColor=none;top=0;left=0;bottom=0;right=0;overflow=hidden;" vertex="1" parent="93qC_zg4oYfhFcOvwt_j-27">
          <mxGeometry x="48" width="113" height="50" as="geometry" />
        </mxCell>
        <mxCell id="93qC_zg4oYfhFcOvwt_j-30" value="• inventory&lt;br&gt;• local_pickup" style="shape=partialRectangle;html=1;whiteSpace=wrap;connectable=0;fillColor=none;top=0;left=0;bottom=0;right=0;overflow=hidden;" vertex="1" parent="93qC_zg4oYfhFcOvwt_j-27">
          <mxGeometry x="161" width="129" height="50" as="geometry" />
        </mxCell>
        <mxCell id="93qC_zg4oYfhFcOvwt_j-31" style="shape=partialRectangle;html=1;whiteSpace=wrap;collapsible=0;dropTarget=0;pointerEvents=0;fillColor=none;top=0;left=0;bottom=0;right=0;points=[[0,0.5],[1,0.5]];portConstraint=eastwest;" vertex="1" parent="93qC_zg4oYfhFcOvwt_j-14">
          <mxGeometry y="242" width="290" height="48" as="geometry" />
        </mxCell>
        <mxCell id="93qC_zg4oYfhFcOvwt_j-32" value="5." style="shape=partialRectangle;html=1;whiteSpace=wrap;connectable=0;fillColor=none;top=0;left=0;bottom=0;right=0;overflow=hidden;" vertex="1" parent="93qC_zg4oYfhFcOvwt_j-31">
          <mxGeometry width="48" height="48" as="geometry" />
        </mxCell>
        <mxCell id="93qC_zg4oYfhFcOvwt_j-33" value="variant_type" style="shape=partialRectangle;html=1;whiteSpace=wrap;connectable=0;fillColor=none;top=0;left=0;bottom=0;right=0;overflow=hidden;" vertex="1" parent="93qC_zg4oYfhFcOvwt_j-31">
          <mxGeometry x="48" width="113" height="48" as="geometry" />
        </mxCell>
        <mxCell id="93qC_zg4oYfhFcOvwt_j-34" value="• physical (default)&lt;br&gt;• digital" style="shape=partialRectangle;html=1;whiteSpace=wrap;connectable=0;fillColor=none;top=0;left=0;bottom=0;right=0;overflow=hidden;" vertex="1" parent="93qC_zg4oYfhFcOvwt_j-31">
          <mxGeometry x="161" width="129" height="48" as="geometry" />
        </mxCell>
        <mxCell id="93qC_zg4oYfhFcOvwt_j-35" style="shape=partialRectangle;html=1;whiteSpace=wrap;collapsible=0;dropTarget=0;pointerEvents=0;fillColor=none;top=0;left=0;bottom=0;right=0;points=[[0,0.5],[1,0.5]];portConstraint=eastwest;" vertex="1" parent="93qC_zg4oYfhFcOvwt_j-14">
          <mxGeometry y="290" width="290" height="90" as="geometry" />
        </mxCell>
        <mxCell id="93qC_zg4oYfhFcOvwt_j-36" value="6." style="shape=partialRectangle;html=1;whiteSpace=wrap;connectable=0;fillColor=none;top=0;left=0;bottom=0;right=0;overflow=hidden;" vertex="1" parent="93qC_zg4oYfhFcOvwt_j-35">
          <mxGeometry width="48" height="90" as="geometry" />
        </mxCell>
        <mxCell id="93qC_zg4oYfhFcOvwt_j-37" value="field_type" style="shape=partialRectangle;html=1;whiteSpace=wrap;connectable=0;fillColor=none;top=0;left=0;bottom=0;right=0;overflow=hidden;" vertex="1" parent="93qC_zg4oYfhFcOvwt_j-35">
          <mxGeometry x="48" width="113" height="90" as="geometry" />
        </mxCell>
        <mxCell id="93qC_zg4oYfhFcOvwt_j-38" value="• text_field&lt;br&gt;• text_area&lt;br&gt;• number_field&lt;br&gt;• date_field&lt;br&gt;• file_field" style="shape=partialRectangle;html=1;whiteSpace=wrap;connectable=0;fillColor=none;top=0;left=0;bottom=0;right=0;overflow=hidden;" vertex="1" parent="93qC_zg4oYfhFcOvwt_j-35">
          <mxGeometry x="161" width="129" height="90" as="geometry" />
        </mxCell>
        <mxCell id="93qC_zg4oYfhFcOvwt_j-39" style="shape=partialRectangle;html=1;whiteSpace=wrap;collapsible=0;dropTarget=0;pointerEvents=0;fillColor=none;top=0;left=0;bottom=0;right=0;points=[[0,0.5],[1,0.5]];portConstraint=eastwest;" vertex="1" parent="93qC_zg4oYfhFcOvwt_j-14">
          <mxGeometry y="380" width="290" height="70" as="geometry" />
        </mxCell>
        <mxCell id="93qC_zg4oYfhFcOvwt_j-40" value="7." style="shape=partialRectangle;html=1;whiteSpace=wrap;connectable=0;fillColor=none;top=0;left=0;bottom=0;right=0;overflow=hidden;" vertex="1" parent="93qC_zg4oYfhFcOvwt_j-39">
          <mxGeometry width="48" height="70" as="geometry" />
        </mxCell>
        <mxCell id="93qC_zg4oYfhFcOvwt_j-41" value="price_list_type" style="shape=partialRectangle;html=1;whiteSpace=wrap;connectable=0;fillColor=none;top=0;left=0;bottom=0;right=0;overflow=hidden;" vertex="1" parent="93qC_zg4oYfhFcOvwt_j-39">
          <mxGeometry x="48" width="113" height="70" as="geometry" />
        </mxCell>
        <mxCell id="93qC_zg4oYfhFcOvwt_j-42" value="• basic&lt;br&gt;• volume&lt;br&gt;• tiered" style="shape=partialRectangle;html=1;whiteSpace=wrap;connectable=0;fillColor=none;top=0;left=0;bottom=0;right=0;overflow=hidden;" vertex="1" parent="93qC_zg4oYfhFcOvwt_j-39">
          <mxGeometry x="161" width="129" height="70" as="geometry" />
        </mxCell>
        <mxCell id="93qC_zg4oYfhFcOvwt_j-43" value="Sequences" style="shape=table;html=1;whiteSpace=wrap;startSize=30;container=1;collapsible=0;childLayout=tableLayout;fontStyle=1;align=center;" vertex="1" parent="1">
          <mxGeometry x="-1280" y="-1100" width="290" height="80" as="geometry" />
        </mxCell>
        <mxCell id="93qC_zg4oYfhFcOvwt_j-44" value="" style="shape=partialRectangle;html=1;whiteSpace=wrap;collapsible=0;dropTarget=0;pointerEvents=0;fillColor=none;top=0;left=0;bottom=0;right=0;points=[[0,0.5],[1,0.5]];portConstraint=eastwest;" vertex="1" parent="93qC_zg4oYfhFcOvwt_j-43">
          <mxGeometry y="30" width="290" height="50" as="geometry" />
        </mxCell>
        <mxCell id="93qC_zg4oYfhFcOvwt_j-45" value="1." style="shape=partialRectangle;html=1;whiteSpace=wrap;connectable=0;fillColor=none;top=0;left=0;bottom=0;right=0;overflow=hidden;" vertex="1" parent="93qC_zg4oYfhFcOvwt_j-44">
          <mxGeometry width="48" height="50" as="geometry" />
        </mxCell>
        <mxCell id="93qC_zg4oYfhFcOvwt_j-46" value="" style="shape=partialRectangle;html=1;whiteSpace=wrap;connectable=0;fillColor=none;top=0;left=0;bottom=0;right=0;overflow=hidden;" vertex="1" parent="93qC_zg4oYfhFcOvwt_j-44">
          <mxGeometry x="48" width="113" height="50" as="geometry" />
        </mxCell>
        <mxCell id="93qC_zg4oYfhFcOvwt_j-47" value="" style="shape=partialRectangle;html=1;whiteSpace=wrap;connectable=0;fillColor=none;top=0;left=0;bottom=0;right=0;overflow=hidden;" vertex="1" parent="93qC_zg4oYfhFcOvwt_j-44">
          <mxGeometry x="161" width="129" height="50" as="geometry" />
        </mxCell>
        <mxCell id="93qC_zg4oYfhFcOvwt_j-72" value="Event (polymorphic) " style="swimlane;fontStyle=1;childLayout=stackLayout;horizontal=1;startSize=26;horizontalStack=0;resizeParent=1;resizeParentMax=0;resizeLast=0;collapsible=1;marginBottom=0;align=center;fontSize=14;strokeColor=#9673a6;fillColor=#FFE599;" vertex="1" parent="1">
          <mxGeometry x="1600" y="-1160" width="280" height="320" as="geometry" />
        </mxCell>
        <mxCell id="93qC_zg4oYfhFcOvwt_j-73" value="id (PK)" style="text;strokeColor=#000000;fillColor=none;spacingLeft=4;spacingRight=4;overflow=hidden;rotatable=0;points=[[0,0.5],[1,0.5]];portConstraint=eastwest;fontSize=12;" vertex="1" parent="93qC_zg4oYfhFcOvwt_j-72">
          <mxGeometry y="26" width="280" height="26" as="geometry" />
        </mxCell>
        <mxCell id="93qC_zg4oYfhFcOvwt_j-75" value="eventable_id (FK)" style="text;strokeColor=#000000;fillColor=none;spacingLeft=4;spacingRight=4;overflow=hidden;rotatable=0;points=[[0,0.5],[1,0.5]];portConstraint=eastwest;fontSize=12;fontStyle=0" vertex="1" parent="93qC_zg4oYfhFcOvwt_j-72">
          <mxGeometry y="52" width="280" height="28" as="geometry" />
        </mxCell>
        <mxCell id="93qC_zg4oYfhFcOvwt_j-76" value="eventable_type (string) : Model names e.g Product" style="text;strokeColor=#000000;fillColor=none;spacingLeft=4;spacingRight=4;overflow=hidden;rotatable=0;points=[[0,0.5],[1,0.5]];portConstraint=eastwest;fontSize=12;fontStyle=0" vertex="1" parent="93qC_zg4oYfhFcOvwt_j-72">
          <mxGeometry y="80" width="280" height="28" as="geometry" />
        </mxCell>
        <mxCell id="93qC_zg4oYfhFcOvwt_j-74" value="name (string) : " style="text;strokeColor=#000000;fillColor=none;spacingLeft=4;spacingRight=4;overflow=hidden;rotatable=0;points=[[0,0.5],[1,0.5]];portConstraint=eastwest;fontSize=12;" vertex="1" parent="93qC_zg4oYfhFcOvwt_j-72">
          <mxGeometry y="108" width="280" height="26" as="geometry" />
        </mxCell>
        <mxCell id="93qC_zg4oYfhFcOvwt_j-77" value="description (text)" style="text;strokeColor=#000000;fillColor=none;spacingLeft=4;spacingRight=4;overflow=hidden;rotatable=0;points=[[0,0.5],[1,0.5]];portConstraint=eastwest;fontSize=12;fontStyle=0" vertex="1" parent="93qC_zg4oYfhFcOvwt_j-72">
          <mxGeometry y="134" width="280" height="28" as="geometry" />
        </mxCell>
        <mxCell id="93qC_zg4oYfhFcOvwt_j-78" value="creator_id " style="text;strokeColor=#000000;fillColor=none;spacingLeft=4;spacingRight=4;overflow=hidden;rotatable=0;points=[[0,0.5],[1,0.5]];portConstraint=eastwest;fontSize=12;fontStyle=0" vertex="1" parent="93qC_zg4oYfhFcOvwt_j-72">
          <mxGeometry y="162" width="280" height="28" as="geometry" />
        </mxCell>
        <mxCell id="93qC_zg4oYfhFcOvwt_j-79" value="creator_type" style="text;strokeColor=#000000;fillColor=none;spacingLeft=4;spacingRight=4;overflow=hidden;rotatable=0;points=[[0,0.5],[1,0.5]];portConstraint=eastwest;fontSize=12;fontStyle=0" vertex="1" parent="93qC_zg4oYfhFcOvwt_j-72">
          <mxGeometry y="190" width="280" height="28" as="geometry" />
        </mxCell>
        <mxCell id="93qC_zg4oYfhFcOvwt_j-80" value="data (jsonb)" style="text;strokeColor=#000000;fillColor=none;spacingLeft=4;spacingRight=4;overflow=hidden;rotatable=0;points=[[0,0.5],[1,0.5]];portConstraint=eastwest;fontSize=12;fontStyle=0" vertex="1" parent="93qC_zg4oYfhFcOvwt_j-72">
          <mxGeometry y="218" width="280" height="28" as="geometry" />
        </mxCell>
        <mxCell id="93qC_zg4oYfhFcOvwt_j-81" value="metadata (jsonb)" style="text;strokeColor=#000000;fillColor=none;spacingLeft=4;spacingRight=4;overflow=hidden;rotatable=0;points=[[0,0.5],[1,0.5]];portConstraint=eastwest;fontSize=12;fontStyle=0" vertex="1" parent="93qC_zg4oYfhFcOvwt_j-72">
          <mxGeometry y="246" width="280" height="28" as="geometry" />
        </mxCell>
        <mxCell id="93qC_zg4oYfhFcOvwt_j-82" value="visible_portals (text - array) : [ &quot;customers_portal&quot;, &#xa;&quot;merchant_team_portal&quot; ]" style="text;strokeColor=#000000;fillColor=none;spacingLeft=4;spacingRight=4;overflow=hidden;rotatable=0;points=[[0,0.5],[1,0.5]];portConstraint=eastwest;fontSize=12;fontStyle=0" vertex="1" parent="93qC_zg4oYfhFcOvwt_j-72">
          <mxGeometry y="274" width="280" height="46" as="geometry" />
        </mxCell>
      </root>
    </mxGraphModel>
  </diagram>
</mxfile>
